<mxfile host="app.diagrams.net" modified="2024-05-02T07:30:02.648Z" agent="Mozilla/5.0 (Windows NT 10.0; Win64; x64) AppleWebKit/537.36 (KHTML, like Gecko) Chrome/124.0.0.0 Safari/537.36 Edg/124.0.0.0" etag="xxIn_nv-jHyvi64GaotY" version="24.3.1" type="device">
  <diagram name="Page-1" id="dpXVrWMCaL_NyUNFnRsg">
    <mxGraphModel dx="1061" dy="577" grid="0" gridSize="10" guides="1" tooltips="1" connect="1" arrows="1" fold="1" page="0" pageScale="1" pageWidth="850" pageHeight="1100" math="0" shadow="0">
      <root>
        <mxCell id="0" />
        <mxCell id="1" parent="0" />
        <mxCell id="BRuISN_ENXhugqHmbDBG-254" value="" style="shape=table;startSize=0;container=1;collapsible=0;childLayout=tableLayout;" vertex="1" parent="1">
          <mxGeometry x="241" y="248" width="861.5286167689735" height="597.0286211286276" as="geometry" />
        </mxCell>
        <mxCell id="BRuISN_ENXhugqHmbDBG-255" value="" style="shape=tableRow;horizontal=0;startSize=0;swimlaneHead=0;swimlaneBody=0;strokeColor=inherit;top=0;left=0;bottom=0;right=0;collapsible=0;dropTarget=0;fillColor=none;points=[[0,0.5],[1,0.5]];portConstraint=eastwest;" vertex="1" parent="BRuISN_ENXhugqHmbDBG-254">
          <mxGeometry width="861.5286167689735" height="55" as="geometry" />
        </mxCell>
        <mxCell id="BRuISN_ENXhugqHmbDBG-256" value="&lt;b style=&quot;font-size: 14px;&quot;&gt;&lt;br style=&quot;font-size: 14px;&quot;&gt;&lt;span style=&quot;font-size: 14px;&quot; data-contrast=&quot;none&quot; lang=&quot;EN-US&quot; class=&quot;TextRun SCXW16761265 BCX8&quot;&gt;&lt;span style=&quot;font-size: 14px;&quot; class=&quot;NormalTextRun SCXW16761265 BCX8&quot;&gt;INSTANCE NAME&lt;/span&gt;&lt;span style=&quot;font-size: 14px;&quot; class=&quot;NormalTextRun SCXW16761265 BCX8&quot;&gt;&amp;nbsp;&amp;nbsp;&amp;nbsp;&lt;/span&gt;&lt;/span&gt;&lt;span style=&quot;font-size: 14px;&quot; data-ccp-props=&quot;{&amp;quot;201341983&amp;quot;:0,&amp;quot;335559738&amp;quot;:0,&amp;quot;335559739&amp;quot;:0,&amp;quot;335559740&amp;quot;:240}&quot; class=&quot;EOP SCXW16761265 BCX8&quot;&gt;&amp;nbsp;&lt;/span&gt;&lt;br style=&quot;font-size: 14px;&quot;&gt;&lt;/b&gt;" style="shape=partialRectangle;html=1;whiteSpace=wrap;connectable=0;strokeColor=#d79b00;overflow=hidden;fillColor=#ffcd28;top=0;left=0;bottom=0;right=0;pointerEvents=1;gradientColor=#ffa500;fontSize=14;" vertex="1" parent="BRuISN_ENXhugqHmbDBG-255">
          <mxGeometry width="169" height="55" as="geometry">
            <mxRectangle width="169" height="55" as="alternateBounds" />
          </mxGeometry>
        </mxCell>
        <mxCell id="BRuISN_ENXhugqHmbDBG-257" value="&lt;b style=&quot;font-size: 14px;&quot;&gt;&lt;br style=&quot;font-size: 14px;&quot;&gt;&lt;span style=&quot;font-size: 14px;&quot; data-contrast=&quot;none&quot; lang=&quot;EN-US&quot; class=&quot;TextRun SCXW16761265 BCX8&quot;&gt;&lt;span style=&quot;font-size: 14px;&quot; class=&quot;NormalTextRun SCXW16761265 BCX8&quot;&gt;OPERATING SYSTEM&lt;/span&gt;&lt;/span&gt;&lt;span style=&quot;font-size: 14px;&quot; data-ccp-props=&quot;{&amp;quot;201341983&amp;quot;:0,&amp;quot;335559738&amp;quot;:0,&amp;quot;335559739&amp;quot;:0,&amp;quot;335559740&amp;quot;:240}&quot; class=&quot;EOP SCXW16761265 BCX8&quot;&gt;&amp;nbsp;&lt;/span&gt;&lt;br style=&quot;font-size: 14px;&quot;&gt;&lt;/b&gt;" style="shape=partialRectangle;html=1;whiteSpace=wrap;connectable=0;strokeColor=#d79b00;overflow=hidden;fillColor=#ffcd28;top=0;left=0;bottom=0;right=0;pointerEvents=1;gradientColor=#ffa500;fontSize=14;" vertex="1" parent="BRuISN_ENXhugqHmbDBG-255">
          <mxGeometry x="169" width="181" height="55" as="geometry">
            <mxRectangle width="181" height="55" as="alternateBounds" />
          </mxGeometry>
        </mxCell>
        <mxCell id="BRuISN_ENXhugqHmbDBG-258" value="&lt;b style=&quot;font-size: 14px;&quot;&gt;&lt;br style=&quot;font-size: 14px;&quot;&gt;&lt;span style=&quot;font-size: 14px;&quot; data-contrast=&quot;none&quot; lang=&quot;EN-US&quot; class=&quot;TextRun SCXW16761265 BCX8&quot;&gt;&lt;span style=&quot;font-size: 14px;&quot; class=&quot;NormalTextRun SCXW16761265 BCX8&quot;&gt;SIZE&lt;/span&gt;&lt;/span&gt;&lt;br style=&quot;font-size: 14px;&quot;&gt;&lt;/b&gt;" style="shape=partialRectangle;html=1;whiteSpace=wrap;connectable=0;strokeColor=#d79b00;overflow=hidden;fillColor=#ffcd28;top=0;left=0;bottom=0;right=0;pointerEvents=1;gradientColor=#ffa500;fontSize=14;" vertex="1" parent="BRuISN_ENXhugqHmbDBG-255">
          <mxGeometry x="350" width="171" height="55" as="geometry">
            <mxRectangle width="171" height="55" as="alternateBounds" />
          </mxGeometry>
        </mxCell>
        <mxCell id="BRuISN_ENXhugqHmbDBG-259" value="&lt;b style=&quot;font-size: 14px;&quot;&gt;&lt;br style=&quot;font-size: 14px;&quot;&gt;&lt;span style=&quot;font-size: 14px;&quot; data-contrast=&quot;none&quot; lang=&quot;EN-US&quot; class=&quot;TextRun SCXW16761265 BCX8&quot;&gt;&lt;span style=&quot;font-size: 14px;&quot; class=&quot;NormalTextRun SCXW16761265 BCX8&quot;&gt;PUBLIC &lt;/span&gt;&lt;span style=&quot;font-size: 14px;&quot; class=&quot;NormalTextRun ContextualSpellingAndGrammarErrorV2Themed SCXW16761265 BCX8&quot;&gt;I&lt;/span&gt;&lt;span style=&quot;font-size: 14px;&quot; class=&quot;NormalTextRun ContextualSpellingAndGrammarErrorV2Themed SCXW16761265 BCX8&quot;&gt;P&lt;/span&gt; &lt;span style=&quot;font-size: 14px;&quot; class=&quot;NormalTextRun ContextualSpellingAndGrammarErrorV2Themed SCXW16761265 BCX8&quot;&gt;ADDRESS&lt;/span&gt;&lt;/span&gt;&lt;br style=&quot;font-size: 14px;&quot;&gt;&lt;/b&gt;" style="shape=partialRectangle;html=1;whiteSpace=wrap;connectable=0;strokeColor=#d79b00;overflow=hidden;fillColor=#ffcd28;top=0;left=0;bottom=0;right=0;pointerEvents=1;gradientColor=#ffa500;fontSize=14;" vertex="1" parent="BRuISN_ENXhugqHmbDBG-255">
          <mxGeometry x="521" width="169" height="55" as="geometry">
            <mxRectangle width="169" height="55" as="alternateBounds" />
          </mxGeometry>
        </mxCell>
        <mxCell id="BRuISN_ENXhugqHmbDBG-260" value="&lt;b style=&quot;font-size: 14px;&quot;&gt;&lt;br style=&quot;font-size: 14px;&quot;&gt;&lt;span style=&quot;font-size: 14px;&quot; data-contrast=&quot;none&quot; lang=&quot;EN-US&quot; class=&quot;TextRun SCXW16761265 BCX8&quot;&gt;&lt;span style=&quot;font-size: 14px;&quot; class=&quot;NormalTextRun SCXW16761265 BCX8&quot;&gt;PRIVATE IP ADDRESS&lt;/span&gt;&lt;/span&gt;&lt;br style=&quot;font-size: 14px;&quot;&gt;&lt;/b&gt;" style="shape=partialRectangle;html=1;whiteSpace=wrap;connectable=0;strokeColor=#d79b00;overflow=hidden;fillColor=#ffcd28;top=0;left=0;bottom=0;right=0;pointerEvents=1;gradientColor=#ffa500;fontSize=14;" vertex="1" parent="BRuISN_ENXhugqHmbDBG-255">
          <mxGeometry x="690" width="172" height="55" as="geometry">
            <mxRectangle width="172" height="55" as="alternateBounds" />
          </mxGeometry>
        </mxCell>
        <mxCell id="BRuISN_ENXhugqHmbDBG-261" value="" style="shape=tableRow;horizontal=0;startSize=0;swimlaneHead=0;swimlaneBody=0;strokeColor=inherit;top=0;left=0;bottom=0;right=0;collapsible=0;dropTarget=0;fillColor=none;points=[[0,0.5],[1,0.5]];portConstraint=eastwest;" vertex="1" parent="BRuISN_ENXhugqHmbDBG-254">
          <mxGeometry y="55" width="861.5286167689735" height="38" as="geometry" />
        </mxCell>
        <mxCell id="BRuISN_ENXhugqHmbDBG-262" value="" style="shape=partialRectangle;html=1;whiteSpace=wrap;connectable=0;strokeColor=inherit;overflow=hidden;fillColor=none;top=0;left=0;bottom=0;right=0;pointerEvents=1;" vertex="1" parent="BRuISN_ENXhugqHmbDBG-261">
          <mxGeometry width="169" height="38" as="geometry">
            <mxRectangle width="169" height="38" as="alternateBounds" />
          </mxGeometry>
        </mxCell>
        <mxCell id="BRuISN_ENXhugqHmbDBG-263" value="" style="shape=partialRectangle;html=1;whiteSpace=wrap;connectable=0;strokeColor=inherit;overflow=hidden;fillColor=none;top=0;left=0;bottom=0;right=0;pointerEvents=1;" vertex="1" parent="BRuISN_ENXhugqHmbDBG-261">
          <mxGeometry x="169" width="181" height="38" as="geometry">
            <mxRectangle width="181" height="38" as="alternateBounds" />
          </mxGeometry>
        </mxCell>
        <mxCell id="BRuISN_ENXhugqHmbDBG-264" value="" style="shape=partialRectangle;html=1;whiteSpace=wrap;connectable=0;strokeColor=inherit;overflow=hidden;fillColor=none;top=0;left=0;bottom=0;right=0;pointerEvents=1;" vertex="1" parent="BRuISN_ENXhugqHmbDBG-261">
          <mxGeometry x="350" width="171" height="38" as="geometry">
            <mxRectangle width="171" height="38" as="alternateBounds" />
          </mxGeometry>
        </mxCell>
        <mxCell id="BRuISN_ENXhugqHmbDBG-265" value="" style="shape=partialRectangle;html=1;whiteSpace=wrap;connectable=0;strokeColor=inherit;overflow=hidden;fillColor=none;top=0;left=0;bottom=0;right=0;pointerEvents=1;" vertex="1" parent="BRuISN_ENXhugqHmbDBG-261">
          <mxGeometry x="521" width="169" height="38" as="geometry">
            <mxRectangle width="169" height="38" as="alternateBounds" />
          </mxGeometry>
        </mxCell>
        <mxCell id="BRuISN_ENXhugqHmbDBG-266" value="" style="shape=partialRectangle;html=1;whiteSpace=wrap;connectable=0;strokeColor=inherit;overflow=hidden;fillColor=none;top=0;left=0;bottom=0;right=0;pointerEvents=1;" vertex="1" parent="BRuISN_ENXhugqHmbDBG-261">
          <mxGeometry x="690" width="172" height="38" as="geometry">
            <mxRectangle width="172" height="38" as="alternateBounds" />
          </mxGeometry>
        </mxCell>
        <mxCell id="BRuISN_ENXhugqHmbDBG-292" value="" style="shape=tableRow;horizontal=0;startSize=0;swimlaneHead=0;swimlaneBody=0;strokeColor=inherit;top=0;left=0;bottom=0;right=0;collapsible=0;dropTarget=0;fillColor=none;points=[[0,0.5],[1,0.5]];portConstraint=eastwest;" vertex="1" parent="BRuISN_ENXhugqHmbDBG-254">
          <mxGeometry y="93" width="861.5286167689735" height="42" as="geometry" />
        </mxCell>
        <mxCell id="BRuISN_ENXhugqHmbDBG-293" value="" style="shape=partialRectangle;html=1;whiteSpace=wrap;connectable=0;strokeColor=inherit;overflow=hidden;fillColor=none;top=0;left=0;bottom=0;right=0;pointerEvents=1;" vertex="1" parent="BRuISN_ENXhugqHmbDBG-292">
          <mxGeometry width="169" height="42" as="geometry">
            <mxRectangle width="169" height="42" as="alternateBounds" />
          </mxGeometry>
        </mxCell>
        <mxCell id="BRuISN_ENXhugqHmbDBG-294" value="" style="shape=partialRectangle;html=1;whiteSpace=wrap;connectable=0;strokeColor=inherit;overflow=hidden;fillColor=none;top=0;left=0;bottom=0;right=0;pointerEvents=1;" vertex="1" parent="BRuISN_ENXhugqHmbDBG-292">
          <mxGeometry x="169" width="181" height="42" as="geometry">
            <mxRectangle width="181" height="42" as="alternateBounds" />
          </mxGeometry>
        </mxCell>
        <mxCell id="BRuISN_ENXhugqHmbDBG-295" value="" style="shape=partialRectangle;html=1;whiteSpace=wrap;connectable=0;strokeColor=inherit;overflow=hidden;fillColor=none;top=0;left=0;bottom=0;right=0;pointerEvents=1;" vertex="1" parent="BRuISN_ENXhugqHmbDBG-292">
          <mxGeometry x="350" width="171" height="42" as="geometry">
            <mxRectangle width="171" height="42" as="alternateBounds" />
          </mxGeometry>
        </mxCell>
        <mxCell id="BRuISN_ENXhugqHmbDBG-296" value="" style="shape=partialRectangle;html=1;whiteSpace=wrap;connectable=0;strokeColor=inherit;overflow=hidden;fillColor=none;top=0;left=0;bottom=0;right=0;pointerEvents=1;" vertex="1" parent="BRuISN_ENXhugqHmbDBG-292">
          <mxGeometry x="521" width="169" height="42" as="geometry">
            <mxRectangle width="169" height="42" as="alternateBounds" />
          </mxGeometry>
        </mxCell>
        <mxCell id="BRuISN_ENXhugqHmbDBG-297" value="" style="shape=partialRectangle;html=1;whiteSpace=wrap;connectable=0;strokeColor=inherit;overflow=hidden;fillColor=none;top=0;left=0;bottom=0;right=0;pointerEvents=1;" vertex="1" parent="BRuISN_ENXhugqHmbDBG-292">
          <mxGeometry x="690" width="172" height="42" as="geometry">
            <mxRectangle width="172" height="42" as="alternateBounds" />
          </mxGeometry>
        </mxCell>
        <mxCell id="BRuISN_ENXhugqHmbDBG-298" value="" style="shape=tableRow;horizontal=0;startSize=0;swimlaneHead=0;swimlaneBody=0;strokeColor=inherit;top=0;left=0;bottom=0;right=0;collapsible=0;dropTarget=0;fillColor=none;points=[[0,0.5],[1,0.5]];portConstraint=eastwest;" vertex="1" parent="BRuISN_ENXhugqHmbDBG-254">
          <mxGeometry y="135" width="861.5286167689735" height="42" as="geometry" />
        </mxCell>
        <mxCell id="BRuISN_ENXhugqHmbDBG-299" value="" style="shape=partialRectangle;html=1;whiteSpace=wrap;connectable=0;strokeColor=inherit;overflow=hidden;fillColor=none;top=0;left=0;bottom=0;right=0;pointerEvents=1;" vertex="1" parent="BRuISN_ENXhugqHmbDBG-298">
          <mxGeometry width="169" height="42" as="geometry">
            <mxRectangle width="169" height="42" as="alternateBounds" />
          </mxGeometry>
        </mxCell>
        <mxCell id="BRuISN_ENXhugqHmbDBG-300" value="" style="shape=partialRectangle;html=1;whiteSpace=wrap;connectable=0;strokeColor=inherit;overflow=hidden;fillColor=none;top=0;left=0;bottom=0;right=0;pointerEvents=1;" vertex="1" parent="BRuISN_ENXhugqHmbDBG-298">
          <mxGeometry x="169" width="181" height="42" as="geometry">
            <mxRectangle width="181" height="42" as="alternateBounds" />
          </mxGeometry>
        </mxCell>
        <mxCell id="BRuISN_ENXhugqHmbDBG-301" value="" style="shape=partialRectangle;html=1;whiteSpace=wrap;connectable=0;strokeColor=inherit;overflow=hidden;fillColor=none;top=0;left=0;bottom=0;right=0;pointerEvents=1;" vertex="1" parent="BRuISN_ENXhugqHmbDBG-298">
          <mxGeometry x="350" width="171" height="42" as="geometry">
            <mxRectangle width="171" height="42" as="alternateBounds" />
          </mxGeometry>
        </mxCell>
        <mxCell id="BRuISN_ENXhugqHmbDBG-302" value="" style="shape=partialRectangle;html=1;whiteSpace=wrap;connectable=0;strokeColor=inherit;overflow=hidden;fillColor=none;top=0;left=0;bottom=0;right=0;pointerEvents=1;" vertex="1" parent="BRuISN_ENXhugqHmbDBG-298">
          <mxGeometry x="521" width="169" height="42" as="geometry">
            <mxRectangle width="169" height="42" as="alternateBounds" />
          </mxGeometry>
        </mxCell>
        <mxCell id="BRuISN_ENXhugqHmbDBG-303" value="" style="shape=partialRectangle;html=1;whiteSpace=wrap;connectable=0;strokeColor=inherit;overflow=hidden;fillColor=none;top=0;left=0;bottom=0;right=0;pointerEvents=1;" vertex="1" parent="BRuISN_ENXhugqHmbDBG-298">
          <mxGeometry x="690" width="172" height="42" as="geometry">
            <mxRectangle width="172" height="42" as="alternateBounds" />
          </mxGeometry>
        </mxCell>
        <mxCell id="BRuISN_ENXhugqHmbDBG-304" value="" style="shape=tableRow;horizontal=0;startSize=0;swimlaneHead=0;swimlaneBody=0;strokeColor=inherit;top=0;left=0;bottom=0;right=0;collapsible=0;dropTarget=0;fillColor=none;points=[[0,0.5],[1,0.5]];portConstraint=eastwest;" vertex="1" parent="BRuISN_ENXhugqHmbDBG-254">
          <mxGeometry y="177" width="861.5286167689735" height="42" as="geometry" />
        </mxCell>
        <mxCell id="BRuISN_ENXhugqHmbDBG-305" value="" style="shape=partialRectangle;html=1;whiteSpace=wrap;connectable=0;strokeColor=inherit;overflow=hidden;fillColor=none;top=0;left=0;bottom=0;right=0;pointerEvents=1;" vertex="1" parent="BRuISN_ENXhugqHmbDBG-304">
          <mxGeometry width="169" height="42" as="geometry">
            <mxRectangle width="169" height="42" as="alternateBounds" />
          </mxGeometry>
        </mxCell>
        <mxCell id="BRuISN_ENXhugqHmbDBG-306" value="" style="shape=partialRectangle;html=1;whiteSpace=wrap;connectable=0;strokeColor=inherit;overflow=hidden;fillColor=none;top=0;left=0;bottom=0;right=0;pointerEvents=1;" vertex="1" parent="BRuISN_ENXhugqHmbDBG-304">
          <mxGeometry x="169" width="181" height="42" as="geometry">
            <mxRectangle width="181" height="42" as="alternateBounds" />
          </mxGeometry>
        </mxCell>
        <mxCell id="BRuISN_ENXhugqHmbDBG-307" value="" style="shape=partialRectangle;html=1;whiteSpace=wrap;connectable=0;strokeColor=inherit;overflow=hidden;fillColor=none;top=0;left=0;bottom=0;right=0;pointerEvents=1;" vertex="1" parent="BRuISN_ENXhugqHmbDBG-304">
          <mxGeometry x="350" width="171" height="42" as="geometry">
            <mxRectangle width="171" height="42" as="alternateBounds" />
          </mxGeometry>
        </mxCell>
        <mxCell id="BRuISN_ENXhugqHmbDBG-308" value="" style="shape=partialRectangle;html=1;whiteSpace=wrap;connectable=0;strokeColor=inherit;overflow=hidden;fillColor=none;top=0;left=0;bottom=0;right=0;pointerEvents=1;" vertex="1" parent="BRuISN_ENXhugqHmbDBG-304">
          <mxGeometry x="521" width="169" height="42" as="geometry">
            <mxRectangle width="169" height="42" as="alternateBounds" />
          </mxGeometry>
        </mxCell>
        <mxCell id="BRuISN_ENXhugqHmbDBG-309" value="" style="shape=partialRectangle;html=1;whiteSpace=wrap;connectable=0;strokeColor=inherit;overflow=hidden;fillColor=none;top=0;left=0;bottom=0;right=0;pointerEvents=1;" vertex="1" parent="BRuISN_ENXhugqHmbDBG-304">
          <mxGeometry x="690" width="172" height="42" as="geometry">
            <mxRectangle width="172" height="42" as="alternateBounds" />
          </mxGeometry>
        </mxCell>
        <mxCell id="BRuISN_ENXhugqHmbDBG-310" value="" style="shape=tableRow;horizontal=0;startSize=0;swimlaneHead=0;swimlaneBody=0;strokeColor=inherit;top=0;left=0;bottom=0;right=0;collapsible=0;dropTarget=0;fillColor=none;points=[[0,0.5],[1,0.5]];portConstraint=eastwest;" vertex="1" parent="BRuISN_ENXhugqHmbDBG-254">
          <mxGeometry y="219" width="861.5286167689735" height="42" as="geometry" />
        </mxCell>
        <mxCell id="BRuISN_ENXhugqHmbDBG-311" value="" style="shape=partialRectangle;html=1;whiteSpace=wrap;connectable=0;strokeColor=inherit;overflow=hidden;fillColor=none;top=0;left=0;bottom=0;right=0;pointerEvents=1;" vertex="1" parent="BRuISN_ENXhugqHmbDBG-310">
          <mxGeometry width="169" height="42" as="geometry">
            <mxRectangle width="169" height="42" as="alternateBounds" />
          </mxGeometry>
        </mxCell>
        <mxCell id="BRuISN_ENXhugqHmbDBG-312" value="" style="shape=partialRectangle;html=1;whiteSpace=wrap;connectable=0;strokeColor=inherit;overflow=hidden;fillColor=none;top=0;left=0;bottom=0;right=0;pointerEvents=1;" vertex="1" parent="BRuISN_ENXhugqHmbDBG-310">
          <mxGeometry x="169" width="181" height="42" as="geometry">
            <mxRectangle width="181" height="42" as="alternateBounds" />
          </mxGeometry>
        </mxCell>
        <mxCell id="BRuISN_ENXhugqHmbDBG-313" value="" style="shape=partialRectangle;html=1;whiteSpace=wrap;connectable=0;strokeColor=inherit;overflow=hidden;fillColor=none;top=0;left=0;bottom=0;right=0;pointerEvents=1;" vertex="1" parent="BRuISN_ENXhugqHmbDBG-310">
          <mxGeometry x="350" width="171" height="42" as="geometry">
            <mxRectangle width="171" height="42" as="alternateBounds" />
          </mxGeometry>
        </mxCell>
        <mxCell id="BRuISN_ENXhugqHmbDBG-314" value="" style="shape=partialRectangle;html=1;whiteSpace=wrap;connectable=0;strokeColor=inherit;overflow=hidden;fillColor=none;top=0;left=0;bottom=0;right=0;pointerEvents=1;" vertex="1" parent="BRuISN_ENXhugqHmbDBG-310">
          <mxGeometry x="521" width="169" height="42" as="geometry">
            <mxRectangle width="169" height="42" as="alternateBounds" />
          </mxGeometry>
        </mxCell>
        <mxCell id="BRuISN_ENXhugqHmbDBG-315" value="" style="shape=partialRectangle;html=1;whiteSpace=wrap;connectable=0;strokeColor=inherit;overflow=hidden;fillColor=none;top=0;left=0;bottom=0;right=0;pointerEvents=1;" vertex="1" parent="BRuISN_ENXhugqHmbDBG-310">
          <mxGeometry x="690" width="172" height="42" as="geometry">
            <mxRectangle width="172" height="42" as="alternateBounds" />
          </mxGeometry>
        </mxCell>
        <mxCell id="BRuISN_ENXhugqHmbDBG-330" value="" style="shape=tableRow;horizontal=0;startSize=0;swimlaneHead=0;swimlaneBody=0;strokeColor=inherit;top=0;left=0;bottom=0;right=0;collapsible=0;dropTarget=0;fillColor=none;points=[[0,0.5],[1,0.5]];portConstraint=eastwest;" vertex="1" parent="BRuISN_ENXhugqHmbDBG-254">
          <mxGeometry y="261" width="861.5286167689735" height="42" as="geometry" />
        </mxCell>
        <mxCell id="BRuISN_ENXhugqHmbDBG-331" value="" style="shape=partialRectangle;html=1;whiteSpace=wrap;connectable=0;strokeColor=inherit;overflow=hidden;fillColor=none;top=0;left=0;bottom=0;right=0;pointerEvents=1;" vertex="1" parent="BRuISN_ENXhugqHmbDBG-330">
          <mxGeometry width="169" height="42" as="geometry">
            <mxRectangle width="169" height="42" as="alternateBounds" />
          </mxGeometry>
        </mxCell>
        <mxCell id="BRuISN_ENXhugqHmbDBG-332" value="" style="shape=partialRectangle;html=1;whiteSpace=wrap;connectable=0;strokeColor=inherit;overflow=hidden;fillColor=none;top=0;left=0;bottom=0;right=0;pointerEvents=1;" vertex="1" parent="BRuISN_ENXhugqHmbDBG-330">
          <mxGeometry x="169" width="181" height="42" as="geometry">
            <mxRectangle width="181" height="42" as="alternateBounds" />
          </mxGeometry>
        </mxCell>
        <mxCell id="BRuISN_ENXhugqHmbDBG-333" value="" style="shape=partialRectangle;html=1;whiteSpace=wrap;connectable=0;strokeColor=inherit;overflow=hidden;fillColor=none;top=0;left=0;bottom=0;right=0;pointerEvents=1;" vertex="1" parent="BRuISN_ENXhugqHmbDBG-330">
          <mxGeometry x="350" width="171" height="42" as="geometry">
            <mxRectangle width="171" height="42" as="alternateBounds" />
          </mxGeometry>
        </mxCell>
        <mxCell id="BRuISN_ENXhugqHmbDBG-334" value="" style="shape=partialRectangle;html=1;whiteSpace=wrap;connectable=0;strokeColor=inherit;overflow=hidden;fillColor=none;top=0;left=0;bottom=0;right=0;pointerEvents=1;" vertex="1" parent="BRuISN_ENXhugqHmbDBG-330">
          <mxGeometry x="521" width="169" height="42" as="geometry">
            <mxRectangle width="169" height="42" as="alternateBounds" />
          </mxGeometry>
        </mxCell>
        <mxCell id="BRuISN_ENXhugqHmbDBG-335" value="" style="shape=partialRectangle;html=1;whiteSpace=wrap;connectable=0;strokeColor=inherit;overflow=hidden;fillColor=none;top=0;left=0;bottom=0;right=0;pointerEvents=1;" vertex="1" parent="BRuISN_ENXhugqHmbDBG-330">
          <mxGeometry x="690" width="172" height="42" as="geometry">
            <mxRectangle width="172" height="42" as="alternateBounds" />
          </mxGeometry>
        </mxCell>
        <mxCell id="BRuISN_ENXhugqHmbDBG-336" value="" style="shape=tableRow;horizontal=0;startSize=0;swimlaneHead=0;swimlaneBody=0;strokeColor=inherit;top=0;left=0;bottom=0;right=0;collapsible=0;dropTarget=0;fillColor=none;points=[[0,0.5],[1,0.5]];portConstraint=eastwest;" vertex="1" parent="BRuISN_ENXhugqHmbDBG-254">
          <mxGeometry y="303" width="861.5286167689735" height="42" as="geometry" />
        </mxCell>
        <mxCell id="BRuISN_ENXhugqHmbDBG-337" value="" style="shape=partialRectangle;html=1;whiteSpace=wrap;connectable=0;strokeColor=inherit;overflow=hidden;fillColor=none;top=0;left=0;bottom=0;right=0;pointerEvents=1;" vertex="1" parent="BRuISN_ENXhugqHmbDBG-336">
          <mxGeometry width="169" height="42" as="geometry">
            <mxRectangle width="169" height="42" as="alternateBounds" />
          </mxGeometry>
        </mxCell>
        <mxCell id="BRuISN_ENXhugqHmbDBG-338" value="" style="shape=partialRectangle;html=1;whiteSpace=wrap;connectable=0;strokeColor=inherit;overflow=hidden;fillColor=none;top=0;left=0;bottom=0;right=0;pointerEvents=1;" vertex="1" parent="BRuISN_ENXhugqHmbDBG-336">
          <mxGeometry x="169" width="181" height="42" as="geometry">
            <mxRectangle width="181" height="42" as="alternateBounds" />
          </mxGeometry>
        </mxCell>
        <mxCell id="BRuISN_ENXhugqHmbDBG-339" value="" style="shape=partialRectangle;html=1;whiteSpace=wrap;connectable=0;strokeColor=inherit;overflow=hidden;fillColor=none;top=0;left=0;bottom=0;right=0;pointerEvents=1;" vertex="1" parent="BRuISN_ENXhugqHmbDBG-336">
          <mxGeometry x="350" width="171" height="42" as="geometry">
            <mxRectangle width="171" height="42" as="alternateBounds" />
          </mxGeometry>
        </mxCell>
        <mxCell id="BRuISN_ENXhugqHmbDBG-340" value="" style="shape=partialRectangle;html=1;whiteSpace=wrap;connectable=0;strokeColor=inherit;overflow=hidden;fillColor=none;top=0;left=0;bottom=0;right=0;pointerEvents=1;" vertex="1" parent="BRuISN_ENXhugqHmbDBG-336">
          <mxGeometry x="521" width="169" height="42" as="geometry">
            <mxRectangle width="169" height="42" as="alternateBounds" />
          </mxGeometry>
        </mxCell>
        <mxCell id="BRuISN_ENXhugqHmbDBG-341" value="" style="shape=partialRectangle;html=1;whiteSpace=wrap;connectable=0;strokeColor=inherit;overflow=hidden;fillColor=none;top=0;left=0;bottom=0;right=0;pointerEvents=1;" vertex="1" parent="BRuISN_ENXhugqHmbDBG-336">
          <mxGeometry x="690" width="172" height="42" as="geometry">
            <mxRectangle width="172" height="42" as="alternateBounds" />
          </mxGeometry>
        </mxCell>
        <mxCell id="BRuISN_ENXhugqHmbDBG-342" value="" style="shape=tableRow;horizontal=0;startSize=0;swimlaneHead=0;swimlaneBody=0;strokeColor=inherit;top=0;left=0;bottom=0;right=0;collapsible=0;dropTarget=0;fillColor=none;points=[[0,0.5],[1,0.5]];portConstraint=eastwest;" vertex="1" parent="BRuISN_ENXhugqHmbDBG-254">
          <mxGeometry y="345" width="861.5286167689735" height="42" as="geometry" />
        </mxCell>
        <mxCell id="BRuISN_ENXhugqHmbDBG-343" value="" style="shape=partialRectangle;html=1;whiteSpace=wrap;connectable=0;strokeColor=inherit;overflow=hidden;fillColor=none;top=0;left=0;bottom=0;right=0;pointerEvents=1;" vertex="1" parent="BRuISN_ENXhugqHmbDBG-342">
          <mxGeometry width="169" height="42" as="geometry">
            <mxRectangle width="169" height="42" as="alternateBounds" />
          </mxGeometry>
        </mxCell>
        <mxCell id="BRuISN_ENXhugqHmbDBG-344" value="" style="shape=partialRectangle;html=1;whiteSpace=wrap;connectable=0;strokeColor=inherit;overflow=hidden;fillColor=none;top=0;left=0;bottom=0;right=0;pointerEvents=1;" vertex="1" parent="BRuISN_ENXhugqHmbDBG-342">
          <mxGeometry x="169" width="181" height="42" as="geometry">
            <mxRectangle width="181" height="42" as="alternateBounds" />
          </mxGeometry>
        </mxCell>
        <mxCell id="BRuISN_ENXhugqHmbDBG-345" value="" style="shape=partialRectangle;html=1;whiteSpace=wrap;connectable=0;strokeColor=inherit;overflow=hidden;fillColor=none;top=0;left=0;bottom=0;right=0;pointerEvents=1;" vertex="1" parent="BRuISN_ENXhugqHmbDBG-342">
          <mxGeometry x="350" width="171" height="42" as="geometry">
            <mxRectangle width="171" height="42" as="alternateBounds" />
          </mxGeometry>
        </mxCell>
        <mxCell id="BRuISN_ENXhugqHmbDBG-346" value="" style="shape=partialRectangle;html=1;whiteSpace=wrap;connectable=0;strokeColor=inherit;overflow=hidden;fillColor=none;top=0;left=0;bottom=0;right=0;pointerEvents=1;" vertex="1" parent="BRuISN_ENXhugqHmbDBG-342">
          <mxGeometry x="521" width="169" height="42" as="geometry">
            <mxRectangle width="169" height="42" as="alternateBounds" />
          </mxGeometry>
        </mxCell>
        <mxCell id="BRuISN_ENXhugqHmbDBG-347" value="" style="shape=partialRectangle;html=1;whiteSpace=wrap;connectable=0;strokeColor=inherit;overflow=hidden;fillColor=none;top=0;left=0;bottom=0;right=0;pointerEvents=1;" vertex="1" parent="BRuISN_ENXhugqHmbDBG-342">
          <mxGeometry x="690" width="172" height="42" as="geometry">
            <mxRectangle width="172" height="42" as="alternateBounds" />
          </mxGeometry>
        </mxCell>
        <mxCell id="BRuISN_ENXhugqHmbDBG-348" value="" style="shape=tableRow;horizontal=0;startSize=0;swimlaneHead=0;swimlaneBody=0;strokeColor=inherit;top=0;left=0;bottom=0;right=0;collapsible=0;dropTarget=0;fillColor=none;points=[[0,0.5],[1,0.5]];portConstraint=eastwest;" vertex="1" parent="BRuISN_ENXhugqHmbDBG-254">
          <mxGeometry y="387" width="861.5286167689735" height="42" as="geometry" />
        </mxCell>
        <mxCell id="BRuISN_ENXhugqHmbDBG-349" value="" style="shape=partialRectangle;html=1;whiteSpace=wrap;connectable=0;strokeColor=inherit;overflow=hidden;fillColor=none;top=0;left=0;bottom=0;right=0;pointerEvents=1;" vertex="1" parent="BRuISN_ENXhugqHmbDBG-348">
          <mxGeometry width="169" height="42" as="geometry">
            <mxRectangle width="169" height="42" as="alternateBounds" />
          </mxGeometry>
        </mxCell>
        <mxCell id="BRuISN_ENXhugqHmbDBG-350" value="" style="shape=partialRectangle;html=1;whiteSpace=wrap;connectable=0;strokeColor=inherit;overflow=hidden;fillColor=none;top=0;left=0;bottom=0;right=0;pointerEvents=1;" vertex="1" parent="BRuISN_ENXhugqHmbDBG-348">
          <mxGeometry x="169" width="181" height="42" as="geometry">
            <mxRectangle width="181" height="42" as="alternateBounds" />
          </mxGeometry>
        </mxCell>
        <mxCell id="BRuISN_ENXhugqHmbDBG-351" value="" style="shape=partialRectangle;html=1;whiteSpace=wrap;connectable=0;strokeColor=inherit;overflow=hidden;fillColor=none;top=0;left=0;bottom=0;right=0;pointerEvents=1;" vertex="1" parent="BRuISN_ENXhugqHmbDBG-348">
          <mxGeometry x="350" width="171" height="42" as="geometry">
            <mxRectangle width="171" height="42" as="alternateBounds" />
          </mxGeometry>
        </mxCell>
        <mxCell id="BRuISN_ENXhugqHmbDBG-352" value="" style="shape=partialRectangle;html=1;whiteSpace=wrap;connectable=0;strokeColor=inherit;overflow=hidden;fillColor=none;top=0;left=0;bottom=0;right=0;pointerEvents=1;" vertex="1" parent="BRuISN_ENXhugqHmbDBG-348">
          <mxGeometry x="521" width="169" height="42" as="geometry">
            <mxRectangle width="169" height="42" as="alternateBounds" />
          </mxGeometry>
        </mxCell>
        <mxCell id="BRuISN_ENXhugqHmbDBG-353" value="" style="shape=partialRectangle;html=1;whiteSpace=wrap;connectable=0;strokeColor=inherit;overflow=hidden;fillColor=none;top=0;left=0;bottom=0;right=0;pointerEvents=1;" vertex="1" parent="BRuISN_ENXhugqHmbDBG-348">
          <mxGeometry x="690" width="172" height="42" as="geometry">
            <mxRectangle width="172" height="42" as="alternateBounds" />
          </mxGeometry>
        </mxCell>
        <mxCell id="BRuISN_ENXhugqHmbDBG-354" value="" style="shape=tableRow;horizontal=0;startSize=0;swimlaneHead=0;swimlaneBody=0;strokeColor=inherit;top=0;left=0;bottom=0;right=0;collapsible=0;dropTarget=0;fillColor=none;points=[[0,0.5],[1,0.5]];portConstraint=eastwest;" vertex="1" parent="BRuISN_ENXhugqHmbDBG-254">
          <mxGeometry y="429" width="861.5286167689735" height="42" as="geometry" />
        </mxCell>
        <mxCell id="BRuISN_ENXhugqHmbDBG-355" value="" style="shape=partialRectangle;html=1;whiteSpace=wrap;connectable=0;strokeColor=inherit;overflow=hidden;fillColor=none;top=0;left=0;bottom=0;right=0;pointerEvents=1;" vertex="1" parent="BRuISN_ENXhugqHmbDBG-354">
          <mxGeometry width="169" height="42" as="geometry">
            <mxRectangle width="169" height="42" as="alternateBounds" />
          </mxGeometry>
        </mxCell>
        <mxCell id="BRuISN_ENXhugqHmbDBG-356" value="" style="shape=partialRectangle;html=1;whiteSpace=wrap;connectable=0;strokeColor=inherit;overflow=hidden;fillColor=none;top=0;left=0;bottom=0;right=0;pointerEvents=1;" vertex="1" parent="BRuISN_ENXhugqHmbDBG-354">
          <mxGeometry x="169" width="181" height="42" as="geometry">
            <mxRectangle width="181" height="42" as="alternateBounds" />
          </mxGeometry>
        </mxCell>
        <mxCell id="BRuISN_ENXhugqHmbDBG-357" value="" style="shape=partialRectangle;html=1;whiteSpace=wrap;connectable=0;strokeColor=inherit;overflow=hidden;fillColor=none;top=0;left=0;bottom=0;right=0;pointerEvents=1;" vertex="1" parent="BRuISN_ENXhugqHmbDBG-354">
          <mxGeometry x="350" width="171" height="42" as="geometry">
            <mxRectangle width="171" height="42" as="alternateBounds" />
          </mxGeometry>
        </mxCell>
        <mxCell id="BRuISN_ENXhugqHmbDBG-358" value="" style="shape=partialRectangle;html=1;whiteSpace=wrap;connectable=0;strokeColor=inherit;overflow=hidden;fillColor=none;top=0;left=0;bottom=0;right=0;pointerEvents=1;" vertex="1" parent="BRuISN_ENXhugqHmbDBG-354">
          <mxGeometry x="521" width="169" height="42" as="geometry">
            <mxRectangle width="169" height="42" as="alternateBounds" />
          </mxGeometry>
        </mxCell>
        <mxCell id="BRuISN_ENXhugqHmbDBG-359" value="" style="shape=partialRectangle;html=1;whiteSpace=wrap;connectable=0;strokeColor=inherit;overflow=hidden;fillColor=none;top=0;left=0;bottom=0;right=0;pointerEvents=1;" vertex="1" parent="BRuISN_ENXhugqHmbDBG-354">
          <mxGeometry x="690" width="172" height="42" as="geometry">
            <mxRectangle width="172" height="42" as="alternateBounds" />
          </mxGeometry>
        </mxCell>
        <mxCell id="BRuISN_ENXhugqHmbDBG-360" value="" style="shape=tableRow;horizontal=0;startSize=0;swimlaneHead=0;swimlaneBody=0;strokeColor=inherit;top=0;left=0;bottom=0;right=0;collapsible=0;dropTarget=0;fillColor=none;points=[[0,0.5],[1,0.5]];portConstraint=eastwest;" vertex="1" parent="BRuISN_ENXhugqHmbDBG-254">
          <mxGeometry y="471" width="861.5286167689735" height="42" as="geometry" />
        </mxCell>
        <mxCell id="BRuISN_ENXhugqHmbDBG-361" value="" style="shape=partialRectangle;html=1;whiteSpace=wrap;connectable=0;strokeColor=inherit;overflow=hidden;fillColor=none;top=0;left=0;bottom=0;right=0;pointerEvents=1;" vertex="1" parent="BRuISN_ENXhugqHmbDBG-360">
          <mxGeometry width="169" height="42" as="geometry">
            <mxRectangle width="169" height="42" as="alternateBounds" />
          </mxGeometry>
        </mxCell>
        <mxCell id="BRuISN_ENXhugqHmbDBG-362" value="" style="shape=partialRectangle;html=1;whiteSpace=wrap;connectable=0;strokeColor=inherit;overflow=hidden;fillColor=none;top=0;left=0;bottom=0;right=0;pointerEvents=1;" vertex="1" parent="BRuISN_ENXhugqHmbDBG-360">
          <mxGeometry x="169" width="181" height="42" as="geometry">
            <mxRectangle width="181" height="42" as="alternateBounds" />
          </mxGeometry>
        </mxCell>
        <mxCell id="BRuISN_ENXhugqHmbDBG-363" value="" style="shape=partialRectangle;html=1;whiteSpace=wrap;connectable=0;strokeColor=inherit;overflow=hidden;fillColor=none;top=0;left=0;bottom=0;right=0;pointerEvents=1;" vertex="1" parent="BRuISN_ENXhugqHmbDBG-360">
          <mxGeometry x="350" width="171" height="42" as="geometry">
            <mxRectangle width="171" height="42" as="alternateBounds" />
          </mxGeometry>
        </mxCell>
        <mxCell id="BRuISN_ENXhugqHmbDBG-364" value="" style="shape=partialRectangle;html=1;whiteSpace=wrap;connectable=0;strokeColor=inherit;overflow=hidden;fillColor=none;top=0;left=0;bottom=0;right=0;pointerEvents=1;" vertex="1" parent="BRuISN_ENXhugqHmbDBG-360">
          <mxGeometry x="521" width="169" height="42" as="geometry">
            <mxRectangle width="169" height="42" as="alternateBounds" />
          </mxGeometry>
        </mxCell>
        <mxCell id="BRuISN_ENXhugqHmbDBG-365" value="" style="shape=partialRectangle;html=1;whiteSpace=wrap;connectable=0;strokeColor=inherit;overflow=hidden;fillColor=none;top=0;left=0;bottom=0;right=0;pointerEvents=1;" vertex="1" parent="BRuISN_ENXhugqHmbDBG-360">
          <mxGeometry x="690" width="172" height="42" as="geometry">
            <mxRectangle width="172" height="42" as="alternateBounds" />
          </mxGeometry>
        </mxCell>
        <mxCell id="BRuISN_ENXhugqHmbDBG-366" value="" style="shape=tableRow;horizontal=0;startSize=0;swimlaneHead=0;swimlaneBody=0;strokeColor=inherit;top=0;left=0;bottom=0;right=0;collapsible=0;dropTarget=0;fillColor=none;points=[[0,0.5],[1,0.5]];portConstraint=eastwest;" vertex="1" parent="BRuISN_ENXhugqHmbDBG-254">
          <mxGeometry y="513" width="861.5286167689735" height="42" as="geometry" />
        </mxCell>
        <mxCell id="BRuISN_ENXhugqHmbDBG-367" value="" style="shape=partialRectangle;html=1;whiteSpace=wrap;connectable=0;strokeColor=inherit;overflow=hidden;fillColor=none;top=0;left=0;bottom=0;right=0;pointerEvents=1;" vertex="1" parent="BRuISN_ENXhugqHmbDBG-366">
          <mxGeometry width="169" height="42" as="geometry">
            <mxRectangle width="169" height="42" as="alternateBounds" />
          </mxGeometry>
        </mxCell>
        <mxCell id="BRuISN_ENXhugqHmbDBG-368" value="" style="shape=partialRectangle;html=1;whiteSpace=wrap;connectable=0;strokeColor=inherit;overflow=hidden;fillColor=none;top=0;left=0;bottom=0;right=0;pointerEvents=1;" vertex="1" parent="BRuISN_ENXhugqHmbDBG-366">
          <mxGeometry x="169" width="181" height="42" as="geometry">
            <mxRectangle width="181" height="42" as="alternateBounds" />
          </mxGeometry>
        </mxCell>
        <mxCell id="BRuISN_ENXhugqHmbDBG-369" value="" style="shape=partialRectangle;html=1;whiteSpace=wrap;connectable=0;strokeColor=inherit;overflow=hidden;fillColor=none;top=0;left=0;bottom=0;right=0;pointerEvents=1;" vertex="1" parent="BRuISN_ENXhugqHmbDBG-366">
          <mxGeometry x="350" width="171" height="42" as="geometry">
            <mxRectangle width="171" height="42" as="alternateBounds" />
          </mxGeometry>
        </mxCell>
        <mxCell id="BRuISN_ENXhugqHmbDBG-370" value="" style="shape=partialRectangle;html=1;whiteSpace=wrap;connectable=0;strokeColor=inherit;overflow=hidden;fillColor=none;top=0;left=0;bottom=0;right=0;pointerEvents=1;" vertex="1" parent="BRuISN_ENXhugqHmbDBG-366">
          <mxGeometry x="521" width="169" height="42" as="geometry">
            <mxRectangle width="169" height="42" as="alternateBounds" />
          </mxGeometry>
        </mxCell>
        <mxCell id="BRuISN_ENXhugqHmbDBG-371" value="" style="shape=partialRectangle;html=1;whiteSpace=wrap;connectable=0;strokeColor=inherit;overflow=hidden;fillColor=none;top=0;left=0;bottom=0;right=0;pointerEvents=1;" vertex="1" parent="BRuISN_ENXhugqHmbDBG-366">
          <mxGeometry x="690" width="172" height="42" as="geometry">
            <mxRectangle width="172" height="42" as="alternateBounds" />
          </mxGeometry>
        </mxCell>
        <mxCell id="BRuISN_ENXhugqHmbDBG-372" value="" style="shape=tableRow;horizontal=0;startSize=0;swimlaneHead=0;swimlaneBody=0;strokeColor=inherit;top=0;left=0;bottom=0;right=0;collapsible=0;dropTarget=0;fillColor=none;points=[[0,0.5],[1,0.5]];portConstraint=eastwest;" vertex="1" parent="BRuISN_ENXhugqHmbDBG-254">
          <mxGeometry y="555" width="861.5286167689735" height="42" as="geometry" />
        </mxCell>
        <mxCell id="BRuISN_ENXhugqHmbDBG-373" value="" style="shape=partialRectangle;html=1;whiteSpace=wrap;connectable=0;strokeColor=inherit;overflow=hidden;fillColor=none;top=0;left=0;bottom=0;right=0;pointerEvents=1;" vertex="1" parent="BRuISN_ENXhugqHmbDBG-372">
          <mxGeometry width="169" height="42" as="geometry">
            <mxRectangle width="169" height="42" as="alternateBounds" />
          </mxGeometry>
        </mxCell>
        <mxCell id="BRuISN_ENXhugqHmbDBG-374" value="" style="shape=partialRectangle;html=1;whiteSpace=wrap;connectable=0;strokeColor=inherit;overflow=hidden;fillColor=none;top=0;left=0;bottom=0;right=0;pointerEvents=1;" vertex="1" parent="BRuISN_ENXhugqHmbDBG-372">
          <mxGeometry x="169" width="181" height="42" as="geometry">
            <mxRectangle width="181" height="42" as="alternateBounds" />
          </mxGeometry>
        </mxCell>
        <mxCell id="BRuISN_ENXhugqHmbDBG-375" value="" style="shape=partialRectangle;html=1;whiteSpace=wrap;connectable=0;strokeColor=inherit;overflow=hidden;fillColor=none;top=0;left=0;bottom=0;right=0;pointerEvents=1;" vertex="1" parent="BRuISN_ENXhugqHmbDBG-372">
          <mxGeometry x="350" width="171" height="42" as="geometry">
            <mxRectangle width="171" height="42" as="alternateBounds" />
          </mxGeometry>
        </mxCell>
        <mxCell id="BRuISN_ENXhugqHmbDBG-376" value="" style="shape=partialRectangle;html=1;whiteSpace=wrap;connectable=0;strokeColor=inherit;overflow=hidden;fillColor=none;top=0;left=0;bottom=0;right=0;pointerEvents=1;" vertex="1" parent="BRuISN_ENXhugqHmbDBG-372">
          <mxGeometry x="521" width="169" height="42" as="geometry">
            <mxRectangle width="169" height="42" as="alternateBounds" />
          </mxGeometry>
        </mxCell>
        <mxCell id="BRuISN_ENXhugqHmbDBG-377" value="" style="shape=partialRectangle;html=1;whiteSpace=wrap;connectable=0;strokeColor=inherit;overflow=hidden;fillColor=none;top=0;left=0;bottom=0;right=0;pointerEvents=1;" vertex="1" parent="BRuISN_ENXhugqHmbDBG-372">
          <mxGeometry x="690" width="172" height="42" as="geometry">
            <mxRectangle width="172" height="42" as="alternateBounds" />
          </mxGeometry>
        </mxCell>
        <mxCell id="BRuISN_ENXhugqHmbDBG-316" value="&lt;span style=&quot;font-size: 16px;&quot;&gt;ACE&lt;/span&gt;" style="rounded=0;whiteSpace=wrap;html=1;fontStyle=1;fontSize=16;fillColor=#b1ddf0;strokeColor=#10739e;" vertex="1" parent="1">
          <mxGeometry x="241" y="341" width="860" height="42" as="geometry" />
        </mxCell>
        <mxCell id="BRuISN_ENXhugqHmbDBG-323" value="&lt;b&gt;&lt;font style=&quot;font-size: 16px;&quot;&gt;PROD&lt;/font&gt;&lt;/b&gt;" style="rounded=0;whiteSpace=wrap;html=1;fillColor=#b1ddf0;strokeColor=#10739e;" vertex="1" parent="1">
          <mxGeometry x="241" y="592" width="860" height="44" as="geometry" />
        </mxCell>
      </root>
    </mxGraphModel>
  </diagram>
</mxfile>
